<svg xmlns="http://www.w3.org/2000/svg" viewBox="0 0 520 200" role="img" aria-label="ElevateOS">
  <title>ElevateOS</title>

  <g fill="none" stroke="#00C4B4" stroke-width="6" stroke-linecap="round" stroke-linejoin="round">
    <path d="M36 50 C 70 38, 96 50, 100 56 C 104 50, 130 38, 164 50 L 164 150 C 130 138, 104 150, 100 156 C 96 150, 70 138, 36 150 Z" fill="#CBFBF1"></path>
    <path d="M100 56 L 100 156" stroke-width="5"></path>
    <path d="M108 122 L 124 122 L 124 102 L 140 102 L 140 78 C 144 64, 150 56, 156 50"></path>
    <path d="M156 50 C 152 44, 154 38, 158 32 C 154 36, 148 38, 144 36 C 148 38, 150 44, 148 50" stroke-width="5"></path>
  </g>

  <text x="200" y="120" font-family="Inter, system-ui, sans-serif" font-weight="700" font-size="60" letter-spacing="-1.5" fill="#00C4B4">ElevateOS</text>
</svg>
